<svg id="svg" version="1.1" xmlns="http://www.w3.org/2000/svg" xmlns:xlink="http://www.w3.org/1999/xlink" width="400" height="400" viewBox="0, 0, 400,400"><g id="svgg"><path id="path0" d="M51.200 38.600 C 51.200 38.930,51.020 39.200,50.800 39.200 C 50.580 39.200,50.400 39.020,50.400 38.800 C 50.400 38.048,48.842 38.399,47.769 39.393 C 46.905 40.194,46.744 40.621,46.939 41.593 C 47.075 42.276,47.010 42.800,46.790 42.800 C 46.576 42.800,46.400 43.610,46.400 44.600 L 46.400 46.400 44.600 46.400 C 43.610 46.400,42.800 46.576,42.800 46.790 C 42.800 47.010,42.276 47.075,41.593 46.939 C 40.621 46.744,40.194 46.905,39.393 47.769 C 38.399 48.842,38.048 50.400,38.800 50.400 C 39.020 50.400,39.200 50.580,39.200 50.800 C 39.200 51.020,38.930 51.200,38.600 51.200 C 37.988 51.200,37.627 348.434,38.235 351.476 C 38.567 353.136,39.749 353.712,43.245 353.918 L 46.291 354.096 46.545 357.102 C 46.758 359.620,46.969 360.278,47.845 361.154 L 48.891 362.200 147.845 362.305 C 211.909 362.374,246.800 362.273,246.800 362.021 C 246.800 361.807,247.138 361.309,247.550 360.916 C 247.963 360.522,248.437 359.750,248.604 359.200 C 248.771 358.650,249.109 358.072,249.354 357.915 C 249.674 357.710,249.856 347.347,250.000 321.148 C 250.157 292.461,250.307 284.631,250.700 284.500 C 250.976 284.408,251.204 283.677,251.210 282.867 C 251.221 281.182,251.911 277.920,252.322 277.610 C 252.475 277.494,252.948 276.770,253.373 276.000 C 253.798 275.230,254.473 274.365,254.873 274.077 C 255.273 273.790,255.600 273.295,255.600 272.977 C 255.600 272.660,255.751 272.400,255.936 272.400 C 256.121 272.400,256.510 271.680,256.800 270.800 C 257.090 269.920,257.477 269.200,257.659 269.200 C 257.840 269.200,258.251 268.574,258.570 267.809 C 259.171 266.371,259.612 265.736,261.030 264.262 C 261.486 263.788,261.976 263.085,262.117 262.700 C 262.259 262.315,262.585 262.000,262.842 262.000 C 263.098 262.000,263.717 261.595,264.216 261.100 C 265.685 259.645,266.337 259.185,267.809 258.570 C 268.574 258.251,269.200 257.840,269.200 257.659 C 269.200 257.477,269.920 257.090,270.800 256.800 C 271.680 256.510,272.400 256.121,272.400 255.936 C 272.400 255.751,272.660 255.600,272.977 255.600 C 273.295 255.600,273.790 255.273,274.077 254.873 C 274.365 254.473,275.230 253.798,276.000 253.373 C 276.770 252.948,277.494 252.475,277.610 252.322 C 277.920 251.911,281.182 251.221,282.867 251.210 C 283.677 251.204,284.408 250.976,284.500 250.700 C 284.631 250.307,292.461 250.157,321.148 250.000 C 347.347 249.856,357.710 249.674,357.915 249.354 C 358.072 249.109,358.650 248.771,359.200 248.604 C 359.750 248.437,360.522 247.963,360.916 247.550 C 361.309 247.138,361.807 246.800,362.021 246.800 C 362.273 246.800,362.374 211.909,362.305 147.845 L 362.200 48.891 361.154 47.845 C 360.278 46.969,359.620 46.758,357.102 46.545 L 354.096 46.291 353.918 43.245 C 353.712 39.749,353.136 38.567,351.476 38.235 C 348.434 37.627,51.200 37.988,51.200 38.600 M274.677 117.259 C 277.164 117.511,279.200 117.871,279.200 118.059 C 279.200 118.246,279.440 118.400,279.734 118.400 C 281.548 118.400,282.400 120.626,282.400 125.366 L 282.400 129.938 281.125 131.214 C 279.953 132.386,279.532 132.524,275.925 132.924 C 273.766 133.164,272.000 133.504,272.000 133.680 C 272.000 133.856,239.780 134.000,200.400 134.000 C 152.933 134.000,128.800 133.865,128.800 133.600 C 128.800 133.380,127.945 133.187,126.900 133.171 C 123.092 133.112,121.029 132.611,119.690 131.417 L 118.400 130.268 118.400 125.316 C 118.400 119.988,118.328 120.192,120.913 118.130 C 122.506 116.859,262.893 116.064,274.677 117.259 M274.677 167.259 C 277.164 167.511,279.200 167.871,279.200 168.059 C 279.200 168.246,279.440 168.400,279.734 168.400 C 281.548 168.400,282.400 170.626,282.400 175.366 L 282.400 179.938 281.125 181.214 C 279.953 182.386,279.532 182.524,275.925 182.924 C 273.766 183.164,272.000 183.504,272.000 183.680 C 272.000 183.856,239.780 184.000,200.400 184.000 C 152.933 184.000,128.800 183.865,128.800 183.600 C 128.800 183.380,127.945 183.187,126.900 183.171 C 123.092 183.112,121.029 182.611,119.690 181.417 L 118.400 180.268 118.400 175.316 C 118.400 169.988,118.328 170.192,120.913 168.130 C 122.506 166.859,262.893 166.064,274.677 167.259 M224.677 217.259 C 227.164 217.511,229.200 217.871,229.200 218.059 C 229.200 218.246,229.440 218.400,229.734 218.400 C 231.548 218.400,232.400 220.626,232.400 225.366 L 232.400 229.938 231.125 231.214 C 229.953 232.386,229.532 232.524,225.925 232.924 C 223.766 233.164,222.000 233.504,222.000 233.680 C 222.000 233.856,201.030 234.000,175.400 234.000 C 144.600 234.000,128.800 233.864,128.800 233.600 C 128.800 233.380,127.945 233.187,126.900 233.171 C 123.092 233.112,121.029 232.611,119.690 231.417 L 118.400 230.268 118.400 225.316 C 118.400 219.988,118.328 220.192,120.913 218.130 C 122.492 216.870,213.321 216.107,224.677 217.259 M287.300 267.483 C 286.585 267.575,286.000 267.791,286.000 267.962 C 286.000 268.133,285.010 268.494,283.800 268.765 C 282.590 269.036,281.343 269.515,281.028 269.829 C 280.714 270.143,280.332 270.400,280.180 270.400 C 280.027 270.400,277.764 272.538,275.151 275.151 C 272.538 277.764,270.400 280.027,270.400 280.180 C 270.400 280.332,270.150 280.708,269.843 281.014 C 269.537 281.320,269.061 282.522,268.785 283.685 C 268.510 284.848,268.085 285.928,267.842 286.085 C 267.526 286.290,267.400 295.136,267.400 317.200 C 267.400 339.264,267.526 348.110,267.842 348.315 C 268.085 348.472,268.510 349.552,268.785 350.715 C 269.061 351.878,269.568 353.111,269.911 353.454 C 270.368 353.910,270.584 355.193,270.720 358.239 C 270.900 362.297,270.928 362.400,271.852 362.400 C 272.374 362.400,272.800 362.208,272.800 361.973 C 272.800 361.722,273.144 361.655,273.635 361.811 C 275.241 362.321,277.105 361.663,277.670 360.387 C 277.959 359.734,278.331 359.200,278.498 359.200 C 279.011 359.200,278.830 356.879,278.300 356.665 C 278.001 356.544,278.082 356.450,278.500 356.432 C 279.004 356.409,279.200 356.064,279.200 355.200 C 279.200 354.187,279.356 354.000,280.200 354.000 C 280.750 354.000,281.200 353.837,281.200 353.637 C 281.200 353.438,281.558 353.368,281.995 353.483 C 284.734 354.199,287.048 352.173,286.718 349.347 C 286.611 348.428,286.726 348.000,287.080 348.000 C 287.368 348.000,287.600 347.554,287.600 347.000 C 287.600 346.200,287.800 346.000,288.600 346.000 C 289.164 346.000,289.600 345.769,289.600 345.469 C 289.600 345.107,289.982 344.995,290.806 345.115 C 293.488 345.509,295.509 343.488,295.115 340.806 C 294.995 339.982,295.107 339.600,295.469 339.600 C 295.769 339.600,296.000 339.164,296.000 338.600 C 296.000 337.800,296.200 337.600,297.000 337.600 C 297.554 337.600,298.000 337.368,298.000 337.080 C 298.000 336.726,298.428 336.611,299.347 336.718 C 302.173 337.048,304.199 334.734,303.483 331.995 C 303.368 331.558,303.438 331.200,303.637 331.200 C 303.837 331.200,304.000 330.750,304.000 330.200 C 304.000 329.324,304.173 329.200,305.400 329.200 C 306.455 329.200,306.808 329.027,306.832 328.500 C 306.850 328.082,306.944 328.001,307.065 328.300 C 307.339 328.979,309.523 328.934,310.221 328.236 C 310.532 327.925,311.008 327.597,311.280 327.507 C 311.576 327.408,311.780 326.591,311.787 325.472 C 311.794 324.444,311.935 323.602,312.100 323.601 C 312.265 323.601,312.400 322.970,312.400 322.200 C 312.400 320.867,312.467 320.800,313.800 320.800 C 314.855 320.800,315.208 320.627,315.232 320.100 C 315.250 319.682,315.344 319.601,315.465 319.900 C 315.846 320.845,317.999 320.462,319.231 319.231 C 320.462 317.999,320.845 315.846,319.900 315.465 C 319.601 315.344,319.682 315.250,320.100 315.232 C 320.627 315.208,320.800 314.855,320.800 313.800 C 320.800 312.467,320.867 312.400,322.200 312.400 C 322.970 312.400,323.601 312.265,323.601 312.100 C 323.602 311.935,324.444 311.794,325.472 311.787 C 326.591 311.780,327.408 311.576,327.507 311.280 C 327.597 311.008,327.925 310.532,328.236 310.221 C 328.934 309.523,328.979 307.339,328.300 307.065 C 328.001 306.944,328.082 306.850,328.500 306.832 C 329.027 306.808,329.200 306.455,329.200 305.400 C 329.200 304.111,329.295 304.000,330.400 304.000 C 331.060 304.000,331.600 303.865,331.600 303.700 C 331.600 303.535,332.491 303.400,333.580 303.400 C 336.064 303.400,336.594 302.870,336.597 300.384 C 336.599 299.067,336.768 298.402,337.100 298.401 C 337.389 298.401,337.600 297.893,337.600 297.200 C 337.600 296.133,337.733 296.000,338.800 296.000 C 339.493 296.000,340.000 295.789,340.000 295.500 C 340.000 295.167,340.663 295.000,341.980 295.000 C 344.465 295.000,345.000 294.465,345.000 291.980 C 345.000 290.663,345.167 290.000,345.500 290.000 C 345.789 290.000,346.000 289.493,346.000 288.800 C 346.000 287.733,346.133 287.600,347.200 287.600 C 347.893 287.600,348.401 287.389,348.401 287.100 C 348.402 286.768,349.067 286.599,350.384 286.597 C 352.870 286.594,353.400 286.064,353.400 283.580 C 353.400 282.491,353.535 281.600,353.700 281.600 C 353.865 281.600,354.000 281.060,354.000 280.400 C 354.000 279.295,354.111 279.200,355.400 279.200 C 356.455 279.200,356.808 279.027,356.832 278.500 C 356.850 278.082,356.944 278.001,357.065 278.300 C 357.339 278.979,359.523 278.934,360.221 278.236 C 360.532 277.925,361.008 277.597,361.280 277.507 C 361.576 277.408,361.780 276.591,361.787 275.472 C 361.794 274.444,361.935 273.602,362.100 273.601 C 362.265 273.601,362.400 272.997,362.400 272.261 L 362.400 270.922 358.174 270.663 C 355.387 270.492,353.757 270.214,353.389 269.846 C 353.081 269.538,351.878 269.061,350.715 268.785 C 349.552 268.510,348.472 268.085,348.315 267.842 C 348.038 267.413,290.476 267.074,287.300 267.483 " stroke="none" fill="#f4cc04" fill-rule="evenodd"></path><path id="path1" d="M50.400 38.600 C 50.400 38.930,50.580 39.200,50.800 39.200 C 51.020 39.200,51.200 38.930,51.200 38.600 C 51.200 38.270,51.020 38.000,50.800 38.000 C 50.580 38.000,50.400 38.270,50.400 38.600 M38.000 50.800 C 38.000 51.020,38.270 51.200,38.600 51.200 C 38.930 51.200,39.200 51.020,39.200 50.800 C 39.200 50.580,38.930 50.400,38.600 50.400 C 38.270 50.400,38.000 50.580,38.000 50.800 M125.252 117.285 C 123.190 117.491,121.238 117.871,120.913 118.130 C 118.328 120.192,118.400 119.988,118.400 125.316 L 118.400 130.268 119.690 131.417 C 121.029 132.611,123.092 133.112,126.900 133.171 C 127.945 133.187,128.800 133.380,128.800 133.600 C 128.800 133.865,152.933 134.000,200.400 134.000 C 239.780 134.000,272.000 133.856,272.000 133.680 C 272.000 133.504,273.766 133.164,275.925 132.924 C 279.532 132.524,279.953 132.386,281.125 131.214 L 282.400 129.938 282.400 125.366 C 282.400 120.626,281.548 118.400,279.734 118.400 C 279.440 118.400,279.200 118.246,279.200 118.059 C 279.200 116.838,136.888 116.123,125.252 117.285 M125.252 167.285 C 123.190 167.491,121.238 167.871,120.913 168.130 C 118.328 170.192,118.400 169.988,118.400 175.316 L 118.400 180.268 119.690 181.417 C 121.029 182.611,123.092 183.112,126.900 183.171 C 127.945 183.187,128.800 183.380,128.800 183.600 C 128.800 183.865,152.933 184.000,200.400 184.000 C 239.780 184.000,272.000 183.856,272.000 183.680 C 272.000 183.504,273.766 183.164,275.925 182.924 C 279.532 182.524,279.953 182.386,281.125 181.214 L 282.400 179.938 282.400 175.366 C 282.400 170.626,281.548 168.400,279.734 168.400 C 279.440 168.400,279.200 168.246,279.200 168.059 C 279.200 166.838,136.888 166.123,125.252 167.285 M125.252 217.285 C 123.190 217.491,121.238 217.871,120.913 218.130 C 118.328 220.192,118.400 219.988,118.400 225.316 L 118.400 230.268 119.690 231.417 C 121.029 232.611,123.092 233.112,126.900 233.171 C 127.945 233.187,128.800 233.380,128.800 233.600 C 128.800 233.864,144.600 234.000,175.400 234.000 C 201.030 234.000,222.000 233.856,222.000 233.680 C 222.000 233.504,223.766 233.164,225.925 232.924 C 229.532 232.524,229.953 232.386,231.125 231.214 L 232.400 229.938 232.400 225.366 C 232.400 220.626,231.548 218.400,229.734 218.400 C 229.440 218.400,229.200 218.246,229.200 218.059 C 229.200 216.854,136.473 216.164,125.252 217.285 M361.800 246.869 C 361.360 247.122,360.867 247.550,360.705 247.820 C 360.543 248.090,359.915 248.435,359.309 248.587 C 358.704 248.739,358.078 249.074,357.919 249.332 C 357.703 249.682,348.398 249.851,321.148 250.000 C 292.461 250.157,284.631 250.307,284.500 250.700 C 284.408 250.976,283.677 251.204,282.867 251.210 C 281.182 251.221,277.920 251.911,277.610 252.322 C 277.494 252.475,276.770 252.948,276.000 253.373 C 275.230 253.798,274.365 254.473,274.077 254.873 C 273.790 255.273,273.295 255.600,272.977 255.600 C 272.660 255.600,272.400 255.751,272.400 255.936 C 272.400 256.121,271.680 256.510,270.800 256.800 C 269.920 257.090,269.200 257.477,269.200 257.659 C 269.200 257.840,268.574 258.251,267.809 258.570 C 266.337 259.185,265.685 259.645,264.216 261.100 C 263.717 261.595,263.098 262.000,262.842 262.000 C 262.585 262.000,262.259 262.315,262.117 262.700 C 261.976 263.085,261.486 263.788,261.030 264.262 C 259.612 265.736,259.171 266.371,258.570 267.809 C 258.251 268.574,257.840 269.200,257.659 269.200 C 257.477 269.200,257.090 269.920,256.800 270.800 C 256.510 271.680,256.121 272.400,255.936 272.400 C 255.751 272.400,255.600 272.660,255.600 272.977 C 255.600 273.295,255.273 273.790,254.873 274.077 C 254.473 274.365,253.798 275.230,253.373 276.000 C 252.948 276.770,252.475 277.494,252.322 277.610 C 251.911 277.920,251.221 281.182,251.210 282.867 C 251.204 283.677,250.976 284.408,250.700 284.500 C 250.307 284.631,250.157 292.461,250.000 321.148 C 249.856 347.347,249.674 357.710,249.354 357.915 C 249.109 358.072,248.771 358.650,248.604 359.200 C 248.437 359.750,247.965 360.520,247.555 360.911 C 246.518 361.901,246.347 362.868,246.482 367.000 L 246.600 370.600 258.600 370.600 L 270.600 370.600 270.600 362.371 C 270.600 355.274,270.510 354.051,269.943 353.486 C 269.582 353.125,269.061 351.878,268.785 350.715 C 268.510 349.552,268.085 348.472,267.842 348.315 C 267.526 348.110,267.400 339.264,267.400 317.200 C 267.400 295.136,267.526 286.290,267.842 286.085 C 268.085 285.928,268.510 284.848,268.785 283.685 C 269.061 282.522,269.537 281.320,269.843 281.014 C 270.150 280.708,270.400 280.332,270.400 280.180 C 270.400 279.817,279.817 270.400,280.180 270.400 C 280.332 270.400,280.708 270.150,281.014 269.843 C 281.320 269.537,282.522 269.061,283.685 268.785 C 284.848 268.510,285.928 268.085,286.085 267.842 C 286.290 267.526,295.136 267.400,317.200 267.400 C 339.264 267.400,348.110 267.526,348.315 267.842 C 348.472 268.085,349.552 268.510,350.715 268.785 C 351.878 269.061,353.120 269.577,353.475 269.932 C 354.026 270.483,355.322 270.579,362.360 270.589 L 370.600 270.600 370.600 258.600 L 370.600 246.600 366.600 246.505 C 364.144 246.446,362.291 246.587,361.800 246.869 M344.800 290.400 C 344.800 290.620,345.070 290.800,345.400 290.800 C 345.730 290.800,346.000 290.620,346.000 290.400 C 346.000 290.180,345.730 290.000,345.400 290.000 C 345.070 290.000,344.800 290.180,344.800 290.400 M340.000 295.400 C 340.000 295.730,340.180 296.000,340.400 296.000 C 340.620 296.000,340.800 295.730,340.800 295.400 C 340.800 295.070,340.620 294.800,340.400 294.800 C 340.180 294.800,340.000 295.070,340.000 295.400 " stroke="none" fill="#344464" fill-rule="evenodd"></path></g></svg>